<svg xmlns="http://www.w3.org/2000/svg" viewBox="0 0 585 71.9"><path d="M92,54.27a14.18,14.18,0,0,1-6,1.58c-2.28,0-3.41-1-3.41-2.29a12.88,12.88,0,0,1,.74-4c3.83-14.76,5.81-25,5.81-30.48a5.73,5.73,0,0,0-.9-3.15,15.49,15.49,0,0,1,7.22-2c2,0,3.1.66,3.1,2.27a31.57,31.57,0,0,1-1.36,6.57L95.13,33.34c10-13,17.1-19.43,21.43-19.43,2.26,0,3.4.95,3.4,3.15,0,.27-.2,1.2-.33,2.92l-1.35,0h-.35a10.07,10.07,0,0,0-7.05,2.82,107.81,107.81,0,0,0-9.52,10.32c5,10.89,9.7,16.48,13.75,16.48h.27c-.8,4.21-2.78,6.46-6,6.46-2.56,0-5.17-1.85-8-5.84a52.23,52.23,0,0,1-6.88-14c-2,8.86-2.86,14.11-2.86,16.19A7.24,7.24,0,0,0,92,54.27Z" style="fill:#292929"/><path d="M125.48,24.54a11.54,11.54,0,0,1,7-2.53c2.08,0,3.47,1.94,4,5.67.56,6.83,1.17,12.8,2,18l5.72-9.93c2.57-4.63,3.78-8.09,3.78-10.37a11.33,11.33,0,0,0-.38-2.85c5.12.08,7.54,1.25,7.54,3.53,0,2.81-3.82,9.71-11.76,20.86s-14,16.93-18.29,16.93c-2.6,0-4-1-4-2.75,0-1.23.79-2.91,2.23-5a5,5,0,0,0,2.86,1.08c2.36,0,4.5-1.62,6.08-4.6C129.93,36.76,127.65,27.41,125.48,24.54Z" style="fill:#292929"/><path d="M168.28,45A36.62,36.62,0,0,1,170.5,32.6c1.43-4,3.22-6,5.51-6,2.53,0,3.72,2.18,3.72,6.26a37,37,0,0,1-2.07,12.24c-1.42,4-3.19,6.19-5.45,6.19C169.63,51.28,168.28,49.1,168.28,45Zm15.14,4a25.68,25.68,0,0,0,5.45-15.65,11.38,11.38,0,0,0-3-8.29,10.81,10.81,0,0,0-8.17-3.33c-5,0-9.45,2.48-13.13,7.14a25.74,25.74,0,0,0-5.47,15.64A12.06,12.06,0,0,0,162.25,53a11.8,11.8,0,0,0,8.26,3Q177.89,56,183.42,49Z" style="fill:#292929"/><path d="M201.6,31.69h-1.12a12.79,12.79,0,0,0-5.42,1.12,7.66,7.66,0,0,1-.2-1.7A5.17,5.17,0,0,1,196,27.73c.8-.64,2.88-1,6.55-1a68.85,68.85,0,0,0,1.36-8.57,6.21,6.21,0,0,0-.79-3.09,17.58,17.58,0,0,1,6.23-1.19c2.38,0,3.71.9,3.71,2.69a20.33,20.33,0,0,1-.84,5.08c-.84,3.36-1.33,4.9-1.33,5.08h2.74a34.64,34.64,0,0,0,6.91-.78c-.24,3.93-2.51,5.75-6.78,5.75h-1.81l-2,0c-1.45,7.11-2.25,11.77-2.25,14.41,0,2.43.89,3.64,2.83,3.64,1.67,0,3.5-.7,5.77-2.38a5.77,5.77,0,0,1,.82,2.79c0,1.71-1.1,3-3.16,4.13A13.49,13.49,0,0,1,207.31,56c-5.4,0-8.17-2.46-8.17-8C199.14,44.61,200,39.3,201.6,31.69Z" style="fill:#292929"/><path d="M234.53,45a36.63,36.63,0,0,1,2.23-12.42c1.43-4,3.23-6,5.51-6,2.53,0,3.72,2.18,3.72,6.26a37,37,0,0,1-2.07,12.24c-1.42,4-3.33,6.19-5.45,6.19C235.9,51.28,234.53,49.1,234.53,45Zm15.15,4a25.68,25.68,0,0,0,5.45-15.65,11.34,11.34,0,0,0-3-8.29A10.81,10.81,0,0,0,244,21.72c-5.12,0-9.45,2.48-13.14,7.14a25.8,25.8,0,0,0-5.46,15.64A12,12,0,0,0,228.52,53a11.76,11.76,0,0,0,8.25,3Q244.15,56,249.68,49Z" style="fill:#292929"/><path d="M295.93,20l0,2.52v.8c0,1.12,0,2.37,0,4-.05,2.3-.06,4-.06,4.85v2.64l0,3.5h-8.74C290.19,31.68,293.08,25.62,295.93,20Zm-.12,22.89.12,5.63c.1,5.61,1.71,8.12,4.52,8.12a14.25,14.25,0,0,0,6.47-1.87c-1.88-2.8-3-7.46-3-14.23V27.07c0-.89,0-2.3.05-4.23s0-3.18,0-4.07c0-3.06-.79-4.53-2.92-4.53a20.25,20.25,0,0,0-3.93.59l-3.61,1.08q-3.82,7.41-6,11.18c-4.55,8.63-9.08,17-13.62,25.34a4.75,4.75,0,0,0-.85,2.49c0,1.16.81,1.74,2.47,1.74a15.06,15.06,0,0,0,5.71-1.16c-.17-.15-.18-.6-.18-.78a15.93,15.93,0,0,1,1.65-6.19c.85-1.78,1.7-3.56,2.55-5.62Z" style="fill:#292929"/><path d="M327.26,36c4.19-8.8,8.68-13.13,13.22-13.13q5.14,0,5.14,5.15a50.63,50.63,0,0,1-1.74,11,56.21,56.21,0,0,0-1.75,11.28,8.88,8.88,0,0,0,1.3,4.71,9.72,9.72,0,0,1-5.33,1.73c-3.22,0-4.55-1.3-4.55-4.19a40.58,40.58,0,0,1,.77-8C336,36.3,337,31.94,337,31.11s-.42-1.38-1-1.38c-1.09,0-3.39,3.14-6.88,9.58s-5.23,11-5.23,14.48a4.07,4.07,0,0,0,.49,2.26,17,17,0,0,1-5,.61c-2.82,0-4.09-.79-4.09-2.92a13.18,13.18,0,0,1,.59-4L317,46.12c2.3-9.63,3.44-16.13,3.44-19.32a12.06,12.06,0,0,0-.55-2.55,14.63,14.63,0,0,1,5.36-1.14c2.65,0,3.84,1.08,3.84,3.1A73.34,73.34,0,0,1,327.26,36Z" style="fill:#292929"/><path d="M357.72,24.29a18.08,18.08,0,0,1,6.19-1.18c2.37,0,3.83.89,3.83,2.82,0,.86-.34,1.79-.49,3.1-2.78,10.39-4,17.67-4,21.28a6.8,6.8,0,0,0,1.3,4.62,9.68,9.68,0,0,1-5.29,1.73c-3.28,0-4.92-1.3-4.92-4.19,0-2.69.91-6.78,2.17-12.55s2.17-10,2.17-12.54A6.93,6.93,0,0,0,357.72,24.29ZM368.93,18A11.37,11.37,0,0,1,364,19.36c-2.23,0-3.06-.59-3.06-1.75a17.83,17.83,0,0,1,.13-1.9c.08-.84.12-1.42.12-1.77a5,5,0,0,0-.17-1.07,18.53,18.53,0,0,1,5.22-1.14c2.33,0,3.49,1,3.49,2.77A9.52,9.52,0,0,1,368.93,18Z" style="fill:#292929"/><path d="M400,56.05a13.68,13.68,0,0,1-4.59.61c-2.36,0-3.53-.76-3.53-2.56a22.36,22.36,0,0,1,.68-4.93C394.85,38.86,396,32.8,396,31c0-.73-.1-1-.59-1-1.11,0-3.44,3.3-7,9.48-3.84,6.6-5.62,11.25-5.62,14.24a4.87,4.87,0,0,0,.49,2.31,15.87,15.87,0,0,1-4.55.61c-2.74,0-4-.79-4-2.92a13,13,0,0,1,.58-4c2.9-11.65,4.5-19.51,4.5-23a12.11,12.11,0,0,0-.55-2.51,15.83,15.83,0,0,1,5.28-1.14c2.31,0,3.45,1.07,3.45,3.1a19.63,19.63,0,0,1-.63,4.88L386.23,36c5.08-8.81,9.64-13.14,13.68-13.14,2.87,0,4.46,1.72,4.46,5.16,0,1.06-.37,2.29-.56,4a19.75,19.75,0,0,0-.62,4C408,27.15,412.9,22.82,417,22.82c2.91,0,4.51,1.66,4.51,4.86a44.75,44.75,0,0,1-1,5.64c-1.82,9-2.85,14.7-2.85,16.87a7.15,7.15,0,0,0,1.57,4.74,11.23,11.23,0,0,1-5.51,1.73c-2.87,0-4.17-1.29-4.17-4.18a32.57,32.57,0,0,1,1.11-8.63C412,36,413,31.71,413,31s-.39-1-.59-1c-1.1,0-3.43,3.3-7.27,9.48-3.56,6.6-5.35,11.25-5.35,14.24A15.8,15.8,0,0,0,400,56.05Z" style="fill:#292929"/><path d="M444.42,43.38c-2.73,4.44-4.49,6.37-5.54,6.37-.84,0-1.37-1.17-1.37-3.49A33.47,33.47,0,0,1,439.8,34.5c1.33-4.48,3.37-6.57,5.28-6.57s3.85,1.2,5.63,3.73C449.07,35.14,446.88,39,444.42,43.38Zm3,7.9c0,3.58,1.72,5.38,5.14,5.38a7.62,7.62,0,0,0,5-1.77A15.17,15.17,0,0,1,456.4,49a70.45,70.45,0,0,1,1.65-13c.82-5.42,1.95-9.21,3.11-11.53a10.5,10.5,0,0,0-5.34-1.35A5.4,5.4,0,0,0,452,24.56a10.7,10.7,0,0,0-6.26-1.74c-4.69,0-8.74,2.81-12.17,8.29a32.15,32.15,0,0,0-5.13,16.94c0,6.12,2.2,9,6.33,9s8.58-4.47,13.57-13.15A45,45,0,0,0,447.43,51.28Z" style="fill:#292929"/><path d="M472.91,32.78h-1.12a12.9,12.9,0,0,0-5.56,1.13c-.05-.82-.08-1.39-.08-1.72a4.94,4.94,0,0,1,1.13-3.37c.65-.64,2.88-1.11,6.41-1.11a50.9,50.9,0,0,0,1.51-8.58,6.16,6.16,0,0,0-.94-2.93,18.42,18.42,0,0,1,6.22-1.34c2.39,0,3.86,1,3.86,2.83a24.75,24.75,0,0,1-1,5.09c-.7,3.2-1.18,4.9-1.2,4.93h2.76a51.46,51.46,0,0,0,6.91-.64c-.39,3.79-2.37,5.75-6.8,5.75h-1.8l-2.15,0c-1.31,7.11-2.24,11.77-2.24,14.12,0,2.71,1,3.92,2.83,3.92a9.24,9.24,0,0,0,5.78-2.37,6.59,6.59,0,0,1,1,2.5c0,1.72-1.1,3.28-3.3,4.43a12.84,12.84,0,0,1-6.49,1.71c-5.54,0-8.07-2.74-8.07-8C470.55,45.69,471.27,40.39,472.91,32.78Z" style="fill:#292929"/><path d="M501.13,24.29a18,18,0,0,1,6.19-1.18c2.37,0,3.84.89,3.84,2.82,0,.86-.36,1.79-.52,3.1-2.76,10.39-4,17.67-4,21.28a8.72,8.72,0,0,0,1.31,4.62,9.7,9.7,0,0,1-5.28,1.73c-3.3,0-4.95-1.3-4.95-4.19,0-2.69.92-6.78,2.18-12.55s2.18-10,2.18-12.54A7.06,7.06,0,0,0,501.13,24.29ZM512.33,18a11.3,11.3,0,0,1-5,1.34c-2.23,0-3.05-.59-3.05-1.75,0-.49,0-1.07.11-1.9a15.74,15.74,0,0,0,.13-1.77,5.36,5.36,0,0,0-.15-1.07,20.44,20.44,0,0,1,5.21-1.14c2.33,0,3.48,1,3.48,2.77A9.52,9.52,0,0,1,512.33,18Z" style="fill:#292929"/><path d="M527.28,46.11a33.1,33.1,0,0,1,2.22-12.43c1.29-4,3.35-6,5.64-6s3.59,2,3.59,6.26a33.31,33.31,0,0,1-2.21,12.24c-1.28,4-3.06,5.91-5.31,5.91C528.49,52.09,527.28,50.19,527.28,46.11Zm15,3.68a23.76,23.76,0,0,0,5.59-15.5,12.18,12.18,0,0,0-3-8.29,11.32,11.32,0,0,0-8-3.18c-5.1,0-9.58,2.33-13.13,7.13a24.34,24.34,0,0,0-5.59,15.64,11.35,11.35,0,0,0,3,8.2,11.23,11.23,0,0,0,8.38,3.3C534.52,57.09,538.74,54.75,542.28,49.79Z" style="fill:#292929"/><path d="M566.64,36c4.18-8.8,8.68-13.13,13.22-13.13,3.42,0,5.14,1.72,5.14,5.15a50.78,50.78,0,0,1-1.75,11,56.21,56.21,0,0,0-1.75,11.28,8.8,8.8,0,0,0,1.31,4.71,9.75,9.75,0,0,1-5.34,1.73c-3.22,0-4.55-1.3-4.55-4.19a40.58,40.58,0,0,1,.77-8c1.67-8.16,2.64-12.52,2.64-13.35s-.42-1.38-1-1.38c-1.1,0-3.4,3.14-6.89,9.58s-5.23,11-5.23,14.48a4.08,4.08,0,0,0,.5,2.26,17.1,17.1,0,0,1-5,.61c-2.81,0-4.07-.79-4.07-2.92a12.87,12.87,0,0,1,.59-4l1.05-3.66c2.28-9.63,3.43-16.13,3.43-19.32a12.7,12.7,0,0,0-.54-2.55,15.69,15.69,0,0,1,5.36-1.14c2.65,0,3.83,1.08,3.83,3.1A72.52,72.52,0,0,1,566.64,36Z" style="fill:#292929"/><path d="M36.3,23.36A11.19,11.19,0,1,0,47.49,34.55,11.11,11.11,0,0,0,36.3,23.36ZM31.11,39.47a4.68,4.68,0,0,1-4.8-4.66,4.87,4.87,0,0,1,4.8-4.8,4.76,4.76,0,0,1,4.67,4.8A4.57,4.57,0,0,1,31.11,39.47Z" style="fill:#292929"/><path d="M45.93,23.64a37.39,37.39,0,0,0,8.14-12.52C55.13,8.75,60.23,5.9,64.83,10A7.78,7.78,0,0,1,66.34,20c-1.17,2.25-4.1,4.29-15.22,5.46-1.71.22-4.79.57-5.42-.6A.79.79,0,0,1,45.93,23.64Z" style="fill:#292929"/><path d="M36.41,20.29s5.9-4.6,6.18-11.15C42.78,6,40,0,32.35,0c-2,0-5.76.51-7.23,3.09-1.06,1.69-1.12,4.85,1.5,7.49,1.93,1.93,6.49,5.32,7.43,7.91C34.89,20.52,35.43,20.79,36.41,20.29Z" style="fill:#292929"/><path d="M24.55,23.4S17.74,19,16,16.84c-2.89-3.42-5-5.51-9.95-4.35A8.07,8.07,0,0,0,.56,17c-.66,1.47-2.25,6.69,6.29,9a35.78,35.78,0,0,0,11.51,1c2.28-.27,6.19-1.31,6.76-1.94S25.4,24,24.55,23.4Z" style="fill:#292929"/><path d="M24,46.38s1.41-.7,1.71.54A7.32,7.32,0,0,1,24.35,52a19.49,19.49,0,0,1-10.91,9.07c-2.06.66-6,1.64-8.8-2.34-.67-1.12-2.31-5.61.18-9.07.44-.67,2-2.75,6.38-2.18C16,48.07,19.5,49,24,46.38Z" style="fill:#292929"/><path d="M36.23,48.6a12.56,12.56,0,0,1-5.36,7.23A11.79,11.79,0,0,0,26,62.21c-.29,1.6-1.11,8.69,6.89,9.68a8.75,8.75,0,0,0,8.78-6.83A21.86,21.86,0,0,0,40,53a45.14,45.14,0,0,0-2.61-4.94A.79.79,0,0,0,36.23,48.6Z" style="fill:#292929"/><path d="M47.43,45.17s6.31-1.09,10.85,1.21c4,2.15,7.2,4.56,6.33,10.18-.3,2.19-2,4.56-5.76,6.16-2.24.73-5.69,1.11-7.66-2.24-.86-1.57-1.4-6.11-2.85-8.56a20.48,20.48,0,0,0-3.15-4.52C44.61,46.75,45.17,45.66,47.43,45.17Z" style="fill:#292929"/></svg>