<?xml version="1.0" encoding="UTF-8"?>
<svg xmlns="http://www.w3.org/2000/svg" xmlns:xlink="http://www.w3.org/1999/xlink" width="25px" height="25px" viewBox="0 0 25 25" version="1.1">
<g id="surface1">
<path style="fill-rule:nonzero;fill:rgb(0%,0%,0%);fill-opacity:1;stroke-width:1;stroke-linecap:butt;stroke-linejoin:miter;stroke:rgb(0%,0%,0%);stroke-opacity:1;stroke-miterlimit:4;" d="M 59.99988 0 C 93.093564 0 119.99976 21.806206 119.99976 48.712403 C 119.99976 59.399881 115.799768 69.093612 107.118536 78.618593 C 94.499811 93.093564 66.393617 110.699779 59.99988 113.512273 C 53.793642 116.118518 54.487391 112.012276 54.80614 110.399779 L 54.80614 110.306029 L 55.706139 105.09354 C 55.893638 103.593543 56.118638 101.212298 55.499889 99.712301 C 54.80614 97.987304 52.199896 97.199806 50.2124 96.712307 C 21.299957 92.906064 0 72.806104 0 48.712403 C 0 21.806206 26.906196 0 59.99988 0 Z M 37.706175 57.618635 L 26.212448 57.618635 L 26.212448 36.899926 C 26.212448 36.281177 25.743699 35.737429 25.1062 35.699929 L 20.793708 35.699929 C 20.17496 35.737429 19.687461 36.281177 19.706211 36.899926 L 19.706211 62.999874 C 19.706211 63.299873 19.79996 63.618623 19.98746 63.806122 L 19.98746 63.899872 C 20.23121 64.106122 20.512459 64.199872 20.793708 64.199872 L 37.706175 64.199872 C 38.306173 64.199872 38.906172 63.712373 38.793672 62.999874 L 38.793672 58.799882 C 38.812422 58.181134 38.324923 57.656135 37.706175 57.618635 Z M 43.593663 35.699929 C 42.937414 35.699929 42.393665 36.243678 42.393665 36.899926 L 42.393665 62.999874 C 42.393665 63.618623 42.899914 64.199872 43.593663 64.199872 L 47.793654 64.199872 C 48.393653 64.199872 49.012402 63.712373 49.012402 62.999874 L 49.012402 36.899926 C 49.012402 36.243678 48.468653 35.699929 47.793654 35.699929 Z M 72.618605 35.699929 C 71.924856 35.699929 71.399857 36.243678 71.399857 36.899926 L 71.399857 52.406145 L 59.399881 36.206178 C 59.362381 36.168678 59.343631 36.149928 59.306131 36.093678 C 59.306131 36.074928 59.306131 36.018678 59.306131 35.999928 L 59.212382 35.999928 C 59.156132 35.999928 59.137382 35.999928 59.118632 35.999928 L 59.118632 35.906178 C 59.062382 35.887428 59.043632 35.887428 58.987382 35.906178 L 58.987382 35.793678 L 58.706133 35.793678 L 58.706133 35.699929 L 54.206142 35.699929 C 53.587393 35.737429 53.118644 36.281177 53.118644 36.899926 L 53.118644 62.999874 C 53.118644 63.618623 53.606143 64.199872 54.206142 64.199872 L 58.406133 64.199872 C 59.118632 64.199872 59.606131 63.712373 59.606131 62.999874 L 59.606131 47.512405 L 71.606107 63.712373 C 71.681107 63.824872 71.793606 63.918622 71.906106 64.012372 L 71.999856 64.106122 C 72.018606 64.106122 72.074856 64.106122 72.093606 64.106122 L 72.206106 64.106122 C 72.187356 64.124872 72.187356 64.181122 72.206106 64.199872 L 72.299855 64.199872 C 72.393605 64.218622 72.487355 64.218622 72.618605 64.199872 L 76.799846 64.199872 C 77.512345 64.199872 77.999844 63.712373 77.999844 62.999874 L 77.999844 36.899926 C 77.999844 36.243678 77.456095 35.699929 76.799846 35.699929 Z M 101.212298 41.118668 L 101.212298 36.899926 C 101.212298 36.243678 100.668549 35.699929 100.0123 35.699929 L 83.212334 35.699929 C 82.893584 35.699929 82.612335 35.812428 82.406085 35.999928 L 82.406085 36.093678 C 82.181086 36.299927 82.031086 36.581177 82.012336 36.899926 L 82.012336 62.999874 C 82.012336 63.299873 82.106086 63.618623 82.406085 63.806122 L 82.406085 63.899872 C 82.612335 64.106122 82.893584 64.199872 83.212334 64.199872 L 100.0123 64.199872 C 100.593549 64.199872 101.212298 63.712373 101.212298 62.999874 L 101.212298 58.799882 C 101.212298 58.143634 100.668549 57.618635 100.0123 57.618635 L 88.593573 57.618635 L 88.593573 53.212394 L 100.0123 53.212394 C 100.593549 53.212394 101.212298 52.706145 101.212298 52.106146 L 101.212298 47.906154 C 101.212298 47.231156 100.668549 46.706157 100.0123 46.706157 L 88.593573 46.706157 L 88.593573 42.299915 L 100.0123 42.299915 C 100.593549 42.299915 101.212298 41.793666 101.212298 41.118668 Z M 101.212298 41.118668 " transform="matrix(0.208334,0,0,0.208334,0,0)"/>
</g>
</svg>
